<svg width="16" height="24" viewBox="0 0 16 24" fill="none" xmlns="http://www.w3.org/2000/svg">
<g clip-path="url(#clip0_2161_1472)">
<path d="M4.19677 23.19C6.3233 23.19 8.04918 21.5247 8.04918 19.4728V15.7556H4.19677C2.07024 15.7556 0.34436 17.4209 0.34436 19.4728C0.34436 21.5247 2.07024 23.19 4.19677 23.19Z" fill="#0ACF83"/>
<path d="M0.34436 12.0383C0.34436 9.98643 2.07024 8.32111 4.19677 8.32111H8.04918V15.7556H4.19677C2.07024 15.7556 0.34436 14.0903 0.34436 12.0383Z" fill="#A259FF"/>
<path d="M0.34436 4.60384C0.34436 2.55192 2.07024 0.886597 4.19677 0.886597H8.04918V8.32108H4.19677C2.07024 8.32108 0.34436 6.65575 0.34436 4.60384Z" fill="#F24E1E"/>
<path d="M8.04919 0.886597H11.9016C14.0281 0.886597 15.754 2.55192 15.754 4.60384C15.754 6.65575 14.0281 8.32108 11.9016 8.32108H8.04919V0.886597Z" fill="#FF7262"/>
<path d="M15.754 12.0383C15.754 14.0903 14.0281 15.7556 11.9016 15.7556C9.77507 15.7556 8.04919 14.0903 8.04919 12.0383C8.04919 9.98643 9.77507 8.32111 11.9016 8.32111C14.0281 8.32111 15.754 9.98643 15.754 12.0383Z" fill="#1ABCFE"/>
</g>
<defs>
<clipPath id="clip0_2161_1472">
<rect width="15.4127" height="22.3034" fill="white" transform="translate(0.342834 0.886597)"/>
</clipPath>
</defs>
</svg>
